<?xml version="1.0" encoding="UTF-8"?>
<svg xmlns="http://www.w3.org/2000/svg" viewBox="0 0 326 324" width="512" height="512">
  <defs>
    <style>
      .sf-bg { fill: #080d11; }
      .sf-logo { fill: #66fcf1; }
    </style>
  </defs>
  <rect class="sf-bg" width="326" height="324" rx="48" />
  <path class="sf-logo" d="M175.8,55.72c1.15.8,15.18-4.8,17.6-5.54,17.99-5.57,59.54-16.88,76.96-12.97,19.25,4.32,17.02,21.01,15.66,37.13-1.67,19.71-6.82,41.44-12.16,60.49-.45,1.6-2.76,10.74-3.76,10.81-.74-1-5.79-2.34-5.97-2.61-.46-.64,1.6-6.82,1.9-8.19,4-18.21,7.79-38.65,3.54-57.1-3-13.03-13.26-17.63-25.69-19.26-22-2.89-44.51,2.86-65.47,8.86,3.11,12.84,7.58,25.86,12.93,37.95,2.47,5.57,7.2,16.29,11.24,20.38,17.21,17.42,67.26,29.84,91.7,34.52,9.35,1.79,20.57,2.46,29.48,5.01.9.26,1.88.3,2.5,1.15,0,.76-7.06,2-8.23,2.21-20.03,3.51-40.1,6.08-59.81,11.27-15.59,4.1-53.5,15.72-61.13,30.34-3.65,7-12.33,29.34-13.45,36.73-.11.74-.43,2.14.73,1.78,14-7.39,27.06-15.92,38.95-26.38,9.59-8.44,17.72-18.22,25.6-28.23.73-.93,1.74-3.53,2.45-3.95,1.67-.99,5.28-.67,7.21-1.54,1.43-.06-3.81,8.69-4.21,9.38-16.83,28.27-45.39,49.17-74.82,62.9-2.57,10.79-5.86,21.43-8.24,32.27-1.52,6.92-2.69,14.85-4.04,21.03-.6,2.74-1.03,6.62-1.91,9.08-.26.74.16.89-1.1.72.07-4.75-1.4-9.34-1.96-13.99-.28-2.35-.2-1.58-.64-3.1-.78-2.7-.42-5.71-.52-8.22-.01-.32-1.05-.26-1.1-.61-.1-.75.7-1.74.59-2.5-.05-.34-1.02-.25-1.09-.67-1.14-7.01-2.42-16.75-5.23-23.42-.21-.49-.15-1.07-.84-1.29-17.32,5.72-34.9,11.08-52.88,14.45-10.99,2.06-37.64,6.56-47.16,2-6.83-3.26-11.09-13.14-10.99-20.42.26-19.33,5.91-42.3,11.27-60.88,1.27-4.41,3.02-12.48,4.7-16.2,1.33-2.95,5.93-.42,6.03.78-1.27,5.89-2.92,11.79-3.67,17.78-2.34,18.66-5.35,49.14,16.57,56.59,16.54,5.62,52.23,1.8,69.24-3.17,2.31-.68,4.84-.83,4.23-3.91-4.27-11.34-8.15-22.97-12.97-34.08-7.9-18.21-11.47-21.74-29.69-29.9-35.06-15.7-67.48-20.48-105.08-25.59-.79-.11-3.15-.25-3.46-.97,34.4-5.8,69.61-11.83,101.9-25.37,7.11-2.98,16.26-6.88,22.2-11.77,7.16-5.89,9.88-12.75,13.43-21.07,4.14-9.69,7.67-20.17,10.89-30.14-1-1-14.93,6.77-16.88,7.94-10.39,6.2-22.73,16.1-31.21,24.71-8.12,8.24-13.95,18.71-20.13,28.49-1.01.9-6.96,2.28-8.33,2.13-.63-.07-1.06.17-.78-.78.79-2.69,5.19-9.71,6.88-12.46,14.77-24.04,35.03-41.33,59.45-55.01,3.33-1.87,11.92-4.95,13.87-7.56.64-.87,1.45-3.32,1.81-4.47,5.9-19.03,8.59-39.39,11.52-59.04.46-3.12,1.12-3.12,1.58,0,1.55,10.41,2.87,20.88,4.85,31.22.52,2.71,4.19,21.65,5.13,22.31ZM219.44,163.16c-19.14-6.01-35.39-8.14-43.57-28.84-4.43-11.21-7.07-23.21-10.85-34.63-4.55,12.08-7.17,25.38-11.75,37.39-3.99,10.48-11.28,15.62-21.55,19.22-10.44,3.66-21.78,6.01-32.3,9.52,14.15,5.28,39.66,7.32,49.64,19.35,7.34,8.84,9.86,26.92,13.59,38.16.5,1.5,1.27,4.04,1.98,5.33.33.6-.03.89,1.16.67,4.5-13.42,7.22-27.72,12.97-40.61,4.96-8.1,11.97-11.05,20.6-13.9,9.92-3.27,20.34-5.25,30.2-8.74l-3.51-1.44c-2.83.54-4.79-.9-6.61-1.47Z"/>
  <path class="sf-logo" d="M276.09,272.19c-11.58.16-23.19-.21-34.78-.02-16.42.27-32.64,1.39-49.12.55-.79-.04-1.5.39-1.3-.78,2.64-1.09,5.1-3.88,7.37-5.18,4.15-2.39,20.1-2.24,25.8-2.42,11.3-.37,22.71.06,34.01-.48,1.2-.06,7.76-.56,8.1-.79.61-.4.94-2.37,1.02-3.16,1.52-15.01.21-32.26,1.03-47.59.18-3.44.48-9.3,1.08-12.52.22-1.2,4.37-6.03,5.48-6.04.44,0,1.31.48,1.31.8v77.63Z"/>
  <path class="sf-logo" d="M137.59,56.31c.25,1-.37,1.01-.88,1.47-1.63,1.48-5.12,3.75-7.26,4.24-22.72,1.35-45.39,3.32-68.09,4.29-1.16.73-.53,23.93-.58,27.39-.08,6.01-.48,12.24-.57,18.25-.07,4.48.63,11.01-.01,15.15-.24,1.57-4.03,7.67-5.11,9.53-.48.83-.96,2.55-2.17,2.26V56.3s84.66,0,84.66,0Z"/>
</svg>
