<?xml version="1.0" encoding="UTF-8"?>
<svg id="Layer_1" data-name="Layer 1" xmlns="http://www.w3.org/2000/svg" viewBox="0 0 364 60">
  <defs>
    <style>
      .cls-1 {
        fill: currentColor;
      }
    </style>
  </defs>
  <path class="cls-1" d="M306.36,59.32v-26.85c0-1.85-1.46-5.21-3.65-5.64-6.3-1.25-11.18,1.35-11.91,7.98l-.78,24.52c-1.92-.29-7.2.74-8.22-.73-1.68-2.42.92-22.85-.69-28.11-2.7-8.85-14.57-2.33-15.81,4.51-.79,4.34.71,21.83-.52,23.6-1.03,1.48-6.3.44-8.22.73V18.85c1.4.23,8.27-.32,8.56,0,.22.24-.16,2.37,0,3.12,6.09-1.95,11.56-5.84,18.34-3.17,2.25.89,3.55,3.81,5.43,3.99,2.3.22,2.97-2.06,4.81-2.98,9.56-4.75,19.82-.52,21.13,10.42.58,4.84.9,22.78.09,27.16-.63,3.41-6.02,1.49-8.56,1.94Z"/>
  <path class="cls-1" d="M41.75,15.67c-2-.05-5.86,4.68-6.95,3.95-.18-.12-.99-2.7-2.04-3.81-8.18-8.65-26.78-4.14-20.86,6.08,4.13,7.13,26.98,4.42,29.06,17.63,3.59,22.87-27.96,26.02-39.28,13.61-2.52-2.76-1.52-6.91,1.75-7.74,1.33-.34,7.78,5.12,11.08,5.8,7.01,1.44,20.03-.13,17.01-10.02-1.46-4.8-22.14-5.24-27.73-14.28C.11,20.96.26,11.27,5.98,6.76,15.78-.95,38.45,1.54,41.75,15.67Z"/>
  <path class="cls-1" d="M363.17,41.42h-29.57c-.15,8.89,6.85,12.11,14.99,10.71,3.65-.63,6.47-3.36,9.89-4.47,3.3,5.46,5.02,5.36-1.29,9.19-13.58,8.26-31.25,1.4-32.83-15.13-3.01-31.45,41.51-31.45,38.81-.29ZM353.83,34.41c-.89-12.33-18.19-11.37-20.24.38l20.24-.38Z"/>
  <path class="cls-1" d="M111.72,58.43c-.53.85-4.92,1.23-6.13.51-2.11-1.25-.66-4.94-2.31-5.84-6.08,11.55-27.34,8.35-27.1-5.85.21-12.41,17.03-13.02,26.31-12.83.52-6.15-4.16-8.64-9.69-8.58-2.56.03-10.73,3.06-11.3,2.79-.89-.43-2.9-3.1-3.04-4.11-.83-6.13,14.08-6.84,18.18-6.43,10.31,1.03,14.33,6.95,15.17,16.74.23,2.73.53,22.62-.1,23.62ZM102.49,40.64c-5.43.12-18.11.23-17.1,8.1.75,5.84,8.73,5.08,12.7,2.68,3.67-2.22,4.37-6.82,4.4-10.78Z"/>
  <path class="cls-1" d="M236.33,34.41c1.25-9.69-8.04-8.98-14.82-7.43-2.93.67-4.23,3.18-7.02.87-3.2-2.65-2.01-4.15.88-6.24,8.86-6.39,26.18-5,29.56,6.92.85,2.99,1.36,28.68.4,30.05-.89,1.27-5.86.86-6.99.05-1.32-.95.71-3.57-1.63-3.22-1.52.23-4.82,3.67-7.36,4.32-10.52,2.69-21.67-4.74-19.29-16.19,1.01-4.86,8.1-9.13,12.66-9.13h13.62ZM237.11,40.64h-11.28c-5.95,0-10.38,6.85-5.11,11.33,6.62,5.62,17.65-3.46,16.39-11.33ZM237.5,53.87v.78c.51-.26.51-.52,0-.78Z"/>
  <path class="cls-1" d="M164.74,59.32c-2.02-.34-7.69,1.04-8.45-1.28l-.08-30.9c-.45-1.92-7.53-1.01-7.82-1.29-.25-.24-.14-6.67.09-6.93.55-.64,5.69-.39,6.57-1.6.75-1.03,1.14-7.43,2.11-9.56,2.38-5.25,14.53-8.34,19.53-6.71,1.82.59,1.71,6.63.94,7.73-1.14,1.61-11.93-.72-12.87,8.15-.19,1.74.14.87,1.15,1.12,2.28.57,9.39.45,9.73.79.25.25.14,6.36-.34,7.06-1.09,1.56-8.34.36-10.55.73v32.69Z"/>
  <path class="cls-1" d="M51.91,25.85c-.26-.26-4.4.19-5.45,0-1.93-9.66,4.42-6.02,5.46-7,.74-.71-1.36-11.81,1.22-12.37.92-.2,5.24,1.27,7.33-.08-.2,8.71-.51,14.21,10.12,12.45,1.19,11.53-2.54,6.09-8.05,7.91-3.45,1.14-2.15,17.07-1.08,20.28,2.28,6.81,6.89,3.27,9.17,4.83,1.42.98.48,5.68.73,7.45-6.21.26-13.86.6-17.48-5.48-.57-.96-1.97-5-1.97-5.81,0-3.01.79-21.4,0-22.18Z"/>
  <path class="cls-1" d="M121.94,20.01c.46-1.5,6.63-1.53,8.05-1.2,1.49.35.47,4.74,2.45,3.92.89-.37,2.32-2.58,4.28-3.51,1.21-.57,8.04-2.47,8.57-1.94v9.35c-4.99-1.9-14.78,4.95-14.78,9.72v21.79c0,1.71-8.56,1.71-8.56,0V20.01Z"/>
  <path class="cls-1" d="M181.86,18.85c.43-.49,10.66-1.23,8.56,2.33,5.16-.87,8.87-4.59,14.78-3.89.73,12-.12,7.54-7.57,9.94-3.16,1.02-6.83,4.98-7.23,8.34-.67,5.64,1.31,18.2-.09,22.48-.76,2.32-6.43.93-8.45,1.28V18.85Z"/>
  <path class="cls-1" d="M237.5,53.87c.51.26.51.52,0,.78v-.78Z"/>
</svg>