<?xml version="1.0" encoding="UTF-8"?>
<svg id="Layer_1" data-name="Layer 1" xmlns="http://www.w3.org/2000/svg" viewBox="0 0 91.31 42.43">
  <defs>
    <style>
      .cls-1 {
        fill: #f38e29;
      }

      .cls-2 {
        fill: #120b03;
      }

      .cls-3 {
        fill: #f4912b;
      }

      .cls-4 {
        fill: #f28e2b;
      }

      .cls-5 {
        fill: #5ca197;
      }

      .cls-6 {
        fill: #81a938;
      }

      .cls-7 {
        fill: #ef8a27;
      }

      .cls-8 {
        fill: #f7992d;
      }

      .cls-9 {
        fill: #dc802a;
      }

      .cls-10 {
        fill: #170c03;
      }
    </style>
  </defs>
  <path class="cls-10" d="M3.54,8.98H0v21.45l3.2,3.33c.09.07.19.08.3.09.26.03,1.4.03,1.62-.04.12-.04,1.62-1.47,1.85-1.69.47-.46,3.51-3.78,3.78-3.76l5.31,5.37c.42.26,1.53.08,2.05.09,1.19-1.08,2.28-2.29,3.38-3.47V8.98h-3.62v20.94c-.17,0-.34-.17-.47-.27-.63-.51-1.18-1.21-1.77-1.77-1.09-1.05-2.26-2.05-3.19-3.26v-11.92h-3.42s-.12.11-.12.12v12.04c-1.4,1.44-2.86,2.83-4.29,4.21-.23.22-.51.62-.71.79-.1.09-.13.1-.27.08l-.08-20.93Z"/>
  <path class="cls-9" d="M75.24,8.9c.13,0,.26-.01.39,0,.02,0,.22.06.31.08.03,0,.05,0,.08,0v24.87h-3.62V8.98c.94.08,1.91-.08,2.83-.08ZM75.71,17.63s.09-.78.09-.9c.03-1.51-.08-3.16-.15-4.64-.03-.56.41-1.38.21-2.03-.03-.1-.15-.15-.18-.22-.07-.17-.02-.42-.2-.51-.27-.14-1.64-.07-1.97.08-.81.36-.54.94-.55,1.66,0,.95-.03,1.84-.02,2.83.03,3.09-.12,6.17.09,9.21.02.25-.13.8-.14,1.1-.04,1.29.03,2.54.14,3.77.05.49-.15.74-.17,1.11-.04.74.08,1.69.08,2.45,0,.27-.12.55-.08.86.02.18.19.12.23.24.04.13-.02.62.14.66.4-.12,1.9.18,2.12,0,.1-.08.18-.72.19-.91.03-.44,0-1.09,0-1.57,0-.41-.07-.61-.08-.85,0-.29.2-.85.23-1.2.07-.96-.02-2,0-2.99,0-.19.14-.45.05-.59-.05-.07-.21-.05-.2-.12,0-.09.12-.19.15-.32.1-.44.19-1.2.08-1.63-.02-.06-.15-.05-.16-.1-.02-.16.14-.36.15-.54,0-.28-.14-.7-.15-1.02-.02-.66.16-1.32.15-1.97s-.12-1.22-.3-1.81c.01-.09.19,0,.23-.04Z"/>
  <path class="cls-9" d="M3.54,8.98l.08,20.93c.14.02.17,0,.27-.08.2-.17.48-.56.71-.79,1.44-1.38,2.89-2.77,4.29-4.21v-12.04s.11-.12.12-.12h3.42v11.92c.93,1.21,2.1,2.21,3.19,3.26.59.57,1.14,1.26,1.77,1.77.13.11.3.27.47.27V8.98h3.62v21.37c-1.1,1.18-2.19,2.39-3.38,3.47-.52,0-1.63.18-2.05-.09l-5.31-5.37c-.27-.02-3.31,3.3-3.78,3.76-.23.22-1.73,1.66-1.85,1.69-.22.06-1.36.07-1.62.04-.11-.01-.21-.02-.3-.09l-3.2-3.33V8.98h3.54ZM20.52,30.68c.3-.32.16-.98.18-1.35.07-1.44.25-2.93.25-4.41,0-2.01-.17-4.19-.09-6.14,0-.25.18-.38.17-.54,0-.13-.14-.31-.16-.55-.19-1.9.1-4.37.08-6.3,0-.8.09-1.85-.94-2.05-.09-.02-.65-.03-.73-.02-.64.11-.82,1.13-.85,1.68-.05.89.07,1.8.09,2.68,0,.37.04.51.06.78.03.5-.2,1.31-.16,1.82.05.6.09,1.25.09,1.89,0,1.94-.08,3.93,0,5.82.03.78-.11,1.64-.08,2.36,0,.22.17.42.17.63,0,.2-.16.33-.16.47,0,.26.17.88.16,1.26,0,.17-.29,1.24-.36,1.37-.1.18-.38.24-.56.3-.16-.15-.51-.24-.63-.32-.07-.05-.08-.2-.23-.28-.52-.31-.38-.09-.89-.6-.89-.87-1.7-1.82-2.53-2.74-.25-.28-1.11-1-1.21-1.31-.13-.39-.25-1.34-.27-1.77-.15-2.76.3-5.48.24-8.27-.14-.42-.02-.96-.09-1.33-.08-.41-.84-.7-1.22-.68-.05,0-.71.16-.77.18-.49.17-.37.41-.46.72-.12.44-.22,1.04-.15,1.49.02.12.16.22.16.32,0,.14-.22.37-.16.79.26,1.81.09,3.18.11,4.97,0,.4,0,1.03.05,1.41.02.21.17.37.17.55,0,.15-.16.1-.17.16,0,.1.08.22.06.36-.02.22-.23.84-.22.89,0,.04.17.03.16.08,0,.03-.16.47-.18.49-.04.06-.21.04-.28.12-.87.99-1.92,1.9-2.86,2.87-.71.74-1.04,1.2-2.03,1.65-.11.05-.06.17-.21.19-.83.11-1.02-.25-1.07-.99-.05-.89.23-1.82.23-2.59,0-.41-.25-1.1-.21-1.5.02-.14.19-.25.2-.34.01-.08-.14-.21-.15-.38-.19-2.11-.05-4.48-.07-6.62-.02-1.91-.16-3.83-.08-5.74.04-1.04.33-1.35-.18-2.42-.23-.48-.22-.29-.49-.31-.68-.07-.91-.13-1.47.37-.18,1.41-.33,2.83-.31,4.26.01,1.12.09,1.91,0,3.07-.07,1,.13,2.02.16,2.99.01.34-.15.73-.17,1.1-.14,2.56.16,5.27.23,7.79.03.99-.06,1.31.64,2.13.41.48,1.13,1.19,1.56,1.58.9.82,1.11.8,2.22.31.76-.34.3-.16.74-.67.24-.28.81-.64,1.11-.93.95-.93,1.97-2.2,2.98-3.05.09-.08.27.1.21-.33.42-.07.51-.24.96-.06.56.23.58.54.92.89.65.67,1.44,1.3,2.13,1.96.73.7,1.51,1.43,2.19,2.11.05.05-.03.18.11.24.73.32,1.6-.06,2.16-.53.68-.57,1.02-1.16,1.61-1.81.07-.08.22-.07.29-.14Z"/>
  <path class="cls-6" d="M44.31,8.98c.84-.01,1.68.02,2.52,0l.08,24.6c0,.06-.02.12-.07.16-.13.09-1.76.02-2.1.03-.1,0-.18.08-.19.08-.16,0-.32,0-.47,0v-6.53c0-.26,0-.53,0-.79,0-.21,0-.42,0-.63,0-.13,0-.26,0-.39,0-1.1,0-2.2,0-3.31v-.39c0-.05,0-.1,0-.16v-.16c0-.34,0-.68,0-1.02v-.24c0-.1,0-.21,0-.31v-.31c0-.39,0-.8,0-1.18,0-.24,0-.47,0-.71,0-.13,0-.26,0-.39,0-.1,0-.21,0-.31,0-.05,0-.1,0-.16s0-.1,0-.16c0-.08,0-.16,0-.24s0-.16,0-.24c0-.28-.08-.59-.08-.79,0-1.96.08-3.99.08-5.98v-.24c.08-.03.06-.17.1-.21.05-.05.13-.02.13-.02Z"/>
  <path class="cls-9" d="M44.07,33.85c-1.18.03-2.36-.02-3.54,0v-7.12s-.11-.12-.12-.12h-9.56v-3.5s.11-.12.12-.12h9.48c.14-1.98.09-3.99.04-5.98l-5.63-5.63c-.27-.15-.22.06-.35.2-1.75,1.82-3.58,3.56-5.32,5.39v16.88h-3.62V15.24l6.24-6.28c.1-.06.22-.05.33-.06,1.28-.12,3.67-.1,4.96,0,.71.06.57.11.98.52,1.99,1.99,3.95,3.99,5.9,6.02,0,.19.08.51.08.79-.28.02-.12-.41-.26-.61-.16-.22-1.08-1.02-1.36-1.28-.46-.43-.98-.87-1.44-1.31-.61-.58-1.21-1.34-1.85-1.85-.15-.11-.37-.13-.41-.18-.12-.11-.4-.79-.43-.83-.03-.03-.15,0-.19-.04-.59-.57-.59-.78-1.56-.85-.8-.06-2.09-.01-2.91.01-.17,0-.82.05-.94.09-.32.09-.53.57-.73.76-.76.76-1.54,1.51-2.29,2.28-1.09,1.13-2.92,2.41-3.42,3.9-.18.54-.05.56,0,.96,0,.06.07.88.06.92-.01.14-.2.39-.22.65-.01.2,0,.63,0,.85.01.35.19,1.48.15,1.73,0,.06-.16.02-.17.16-.03.41.05,1.01.08,1.43.03.53.02.95.02,1.48,0,.33-.09,1.06-.06,1.26.02.11.17.23.19.42.04.41-.22,1.02-.21,1.41,0,.48.28,1.69.24,2.12-.01.12-.15.22-.16.4-.02.22.12.44.09.62-.02.12-.16.21-.15.31.01.07.13.13.14.25.03.39-.12.46-.01,1.05.07.37-.01.7.43.9.3.14,1.59.13,1.79-.07.15-.14.25-.64.24-.85-.01-.26-.15-.39-.17-.56-.05-.55-.08-1.47-.07-2.03,0-.74.25-1.83.15-2.53-.03-.24-.23-.4-.24-.63-.01-.35.26-1.11.24-1.65-.01-.27-.16-.48-.17-.71-.01-.3.18-.65.17-.94,0-.25-.13-.31-.16-.47-.13-.78.15-2.55.14-3.46-.02-1-.22-1.4.13-2.4.26-.74.29-.58.75-1.06,1.27-1.32,2.72-2.57,3.99-3.9.04-.05.18-.04.23-.1.09-.1.18-.54.34-.64.22-.15,1.07-.08,1.33,0,.31.1.6.66.83.9,1.28,1.35,2.69,2.53,3.95,3.88.59.63.8.76.82,1.66.03,1.09-.07,2.2-.05,3.29,0,.32.14.85.13,1.2-.03,1.14-.61,1.33-1.62,1.38-.63.03-1.27-.07-1.88-.08-1.24-.02-2.46.01-3.7.08-.37.02-2.15.06-2.32.37-.12.23-.21,1.06-.14,1.3,0,.03.32.58.35.59.2.07.91.14,1.17.17,2.03.24,4.21.06,6.3.1.24,0,1.17.03,1.3.1.29.14.55,1.18.56,1.5.02.79-.02,1.69-.04,2.51,0,.2-.14.6-.13.72,0,.05.16.03.16.08,0,.1-.14.2-.16.39-.02.14.05,1.61.1,1.68.02.04.62.33.73.33.25.02.91.01,1.18,0,1.35-.07.94-.7.98-1.78,0-.15-.08-.32.16-.27v2.52Z"/>
  <path class="cls-5" d="M48.17,8.9c.1,0,.21,0,.31,0,.11.14.38.08.55.08.13,0,.26,0,.39,0-.19,1.78,0,4.24,0,6.1,0,6.01.07,12.11.01,18.11,0,.21.12.43.07.66-1.65,0-3.31,0-4.96,0,.01,0,.09-.08.19-.08.34-.01,1.96.06,2.1-.03.05-.04.07-.1.07-.16l-.08-24.6c.44-.01.87-.08,1.34-.08Z"/>
  <path class="cls-9" d="M53.05,8.98s.05,0,.08,0v24.87c-1.21,0-2.41,0-3.62,0,.05-.23-.07-.45-.07-.66.06-6-.02-12.09-.01-18.11,0-1.87-.18-4.32,0-6.1,1.15,0,2.49-.09,3.62,0ZM49.66,9.29v23.81c.6.47,1.33.3,2.01.35.17.01.28.15.38.15.05,0,.82-.33.87-.37.22-.16-.09-1.68-.12-2.01-.06-.87.1-1.7.09-2.52,0-.34-.17-.85-.16-1.18,0-.36.27-.61.21-1.09-.3-2.57-.07-5.39-.06-7.96,0-1.8-.15-3.75-.08-5.51,0-.21.16-.39.15-.45-.02-.09-.15-.17-.15-.41,0-.21.13-.31.14-.41.04-.3.06-1.35,0-1.62-.2-.99-1.38-.98-2.21-.92-.35.03-.71.17-1.06.16Z"/>
  <path class="cls-4" d="M76.03.24s.23.22.24.24c0,.18,0,.37,0,.55-.23,0-.18-.24-.45-.3-.4-.09-1,0-1.38.16-.08.03-.16.07-.14.18.49.08,1.04,1.16,1.02,1.58,0,.14-.21.35-.23.63-.03.38.17.75.06,1.16-.06.24-.72.91-.61,1.08.46.08,1.35.14,1.53-.4.19-.57-.03-1.85.05-2.55.02-.15-.1-.32.15-.28,0,.79.12,2.33,0,3.03-.17.94-1.54.65-2.24.67-2.84.07-5.74.06-8.58,0-.18,0-.35.1-.54.08-.39-.02-.87-.44-.92-.82-.09-.64-.05-2.93.1-3.53.05-.18.45-.81.69-.53-.01.01,0,.11-.05.15-.08.09-.22.13-.27.2-.14.19-.07,2.04-.07,2.45,0,.16-.08.31-.07.46,0,.37.26,1.07.64,1.18.18.05.83-.01.94-.14.23-.28-.07-.39-.14-.57-.09-.25-.12-3.16-.11-3.61,0-.21.35-.46-.04-.51-.1-.01-.59.18-.67.24-.14-.07-.23-.13-.08-.27.2-.18.87-.49,1.14-.51.87-.07,1.74.07,2.59.08,1.7.02,3.47-.14,5.12.16l2.32-.24ZM72.35,2.42c.39.18.78-.11.83-.51s-.21-.51.41-.77c.03-.1-.09-.18-.16-.23-.7-.55-3.38-.33-4.37-.36l-1.8-.16c-.14,0-.48.43-.5.53-.01.05.17.92.21,1.02.07.2.33.53.55.56.47-.02,1.02-.13,1.48-.15.97-.03,2.4-.12,3.3-.08.05,0,.04.12.06.13ZM65.95,3.39c-.13.25-.13.79,0,1.02,0,.1.02.23,0,.31,0,.01-.1.02-.08.08.05,0,.11,0,.16,0,.18-.02.73-.08.78-.21-.02-.4.11-2.89-.08-3.01-.11-.07-.6.03-.78-.01,0,.6,0,1.21,0,1.81ZM74.45,1.58c-.24.04-.94-.14-.94.2v2.95c.17-.02.94.07.94-.12V1.58ZM67.84,3.47c.06.07.09.09.19.08,1.3-.1,2.75.11,4.03,0,.16-.01.16-.04.27-.08.33-.13.29-.29.19-.63h-4.76c0,.18-.04.49.08.63ZM73.35,5.44c-.13-.41-.02-1.02-.35-1.34-.47-.45-1.67-.06-2.28-.3-.67.08-1.38-.02-2.04-.02-.46,0-.78-.12-1.05.29-.07.1-.57,1.25-.57,1.32.02.24.75.27.99.28.82.04,1.77-.07,2.6-.09.92-.02,1.85.15,2.72-.15Z"/>
  <path class="cls-9" d="M65.88.09c.08.13.3.08.43.08.6,0,1.21,0,1.81,0,.13,0,.35.05.43-.08,2.2-.01,4.91-.18,7.05,0,.25.02.25.02.43.16l-2.32.24c-1.65-.3-3.42-.14-5.12-.16-.85-.01-1.73-.15-2.59-.08-.27.02-.94.33-1.14.51-.16.15-.07.21.08.27-.01,0-.1.1-.16.16-.24-.28-.64.35-.69.53-.15.6-.19,2.89-.1,3.53.05.38.52.79.92.82.19.01.36-.09.54-.08,2.84.06,5.74.07,8.58,0,.7-.02,2.07.27,2.24-.67.13-.7,0-2.23,0-3.03,0-.42-.02-.82,0-1.26,0-.18,0-.37,0-.55.14.18.14.18.16.43.1,1.24.04,2.98,0,4.26,0,.15,0,.3-.08.43-.03.04-.05.13-.08.16-.07.06-.22.22-.24.24-.18.12-.3.1-.47.16-3.59.08-7.2-.11-10.78,0-.08,0-.16,0-.24,0l-.24-.16c-.13-.15-.36-.45-.47-.55l.04-4.65c.38-.92,1.2-.69,2.01-.7Z"/>
  <path class="cls-6" d="M68.55.09c-.08.13-.3.08-.43.08-.6,0-1.21,0-1.81,0-.13,0-.35.05-.43-.08.89-.02,1.79,0,2.68,0Z"/>
  <path class="cls-9" d="M77.92,8.9c2.57-.26,5.57.2,8.19,0,.08,0,.16,0,.24,0,.05,0,.1,0,.16,0,.36,0,.79-.04,1.13,0,.52.07.54.37.83.66.45.45,2.76,2.62,2.83,2.99.05.27,0,.68,0,.98-.43-.04-.16-.49-.18-.73-.02-.32-.34-.74-.59-.93-.05-.04-.46-.24-.57-.31-.03-.09.03-.19-.07-.36-.14-.23-.51-.34-.71-.51-1.11-.92-1.36-1.57-3.03-1.42-1.07.1-1.81.09-2.9,0s-1.77-.04-2.84.01c-.76.03-1.75-.29-1.98.71-.04.17.05.28.03.41-.02.14-.23.35-.21.58,0,.03.18.6.21.65.24.52,1.57.26,2.02.28.28.02.52.22.8.22.22,0,.38-.16.46-.15.11.02.28.23.49.22.16,0,.28-.23.47-.23.14,0,.28.15.47.16.43.02,1.11-.25,1.5-.24.19,0,.3.13.4.14.13.01.27-.15.53-.14.88.04,1.69.99,2.39,1.44.28.31.11.72.2,1.02.04.12.21.17.22.32.03.54-.1,1.38-.08,1.97.04.85.48,2.32-.23,2.99-.9.85-2.38.38-3.5.35-1.68-.05-3.94-.05-5.59.08-.47.04-.67.23-.79.71-.03.13-.12.78-.11.9,0,.11.15.85.17.89.11.15.75.16.95.19.07.01.16.12.26.14.32.05.38-.24.54-.24.18,0,.16.19.21.22.25.15.52-.14.73-.14.53-.02,1.56.15,2.05.09.18-.02.3-.16.39-.16.19,0,.31.34.46.31s.19-.3.21-.31.23.14.36.15c.7.09,1.52-.01,2.2,0,.19,0,.5.17.62.14.16-.03.18-.27.22-.29.05-.03.28.19.65-.1.52-.4.95-1.09,1.43-1.56.13-.12.35-.19.47-.31.16-.16.13-.41.35-.39-.29.72.47.09.6-.39.04-.14-.08-.3-.03-.38.02-.03.18-.03.21-.14.13-.37.02-2.18.01-2.71,0-.16,0-.31,0-.47,0-.08,0-.16,0-.24,0-.1,0-.21,0-.31,0-.05,0-.11,0-.16,0-.25-.06-.42-.08-.63.32.04.09-.16.08-.24s0-.16,0-.24c0-.07.07-.18.07-.28,0-.22-.22-.48.09-.43.03,2.02,0,4.05-.04,6.06-1,1.3-2.21,2.47-3.39,3.62h-10.19v-3.58c0-.09.19-.11.27-.12,1.68-.2,4.15.01,5.9,0,.54,0,2.62.1,2.95-.04.1-.04.86-.85.87-1.02-.13-1.44.16-3.16,0-4.57-.05-.39-.19-.37-.4-.59-.12-.13-.15-.2-.31-.31-.18-.25-.41-.54-.75-.55h-8.46s-.05-.05-.08-.08v-3.54c.08-.02.14-.07.24-.08Z"/>
  <path class="cls-9" d="M54.78,12.6v-3.62h10.19c.24,0,2.9,3,3.31,3.38v7.41c-.43.41-3.29,3.69-3.55,3.69h-4.21c.19.31.46.64.71.91,2.25,2.48,4.85,4.74,7.09,7.24v2.24h-2.95c-2.45-2.43-4.81-4.95-7.28-7.36-.09-.09-.24-.1-.24-.11v-2.87s-.11-.12-.12-.12h-2.95v-3.58s.11-.12.12-.12h8.42s.48-.19.55-.23c.33-.19.59-.51.7-.87.21-.65.2-3.52.11-4.28-.11-.92-.76-1.61-1.68-1.7-2.49-.25-5.43.13-7.99,0-.08,0-.17.01-.24,0ZM67.18,20.36c.13-.17.64-.89.66-1.04.02-.13-.06-.25-.05-.37.11-1.71.18-3.9.05-5.6-.09-1.26-.79-1.62-1.58-2.44-.44-.46-.98-1.26-1.63-1.44-.43-.12-1.53-.16-2.03-.18-1.44-.05-2.95.1-4.41.09-.59,0-1.29-.12-1.89-.09-.1,0-.68.21-.73.26-.2.21-.31,1.07-.26,1.35.03.17.18.21.22.33.13.39-.06.46.49.69.79.33,1.86.02,2.72.11,1.65.21,3.3-.09,4.95.16.48.4,1.06.78,1.29,1.39.12.34.33,1.6.33,1.96,0,.2-.18.29-.16.46,0,.04.16.04.17.09.04.3-.18,1.21-.16,1.56.01.22.31.54.3.95-.02.55-.72,1.27-1.23,1.43-.75.23-2.01.22-2.81.19-.28-.01-.54-.16-.79-.16-.84,0-1.53.07-2.46.03-.56-.02-2.48-.13-2.62.56-.04.21-.16.51-.16.54-.03.23.07,1.25.21,1.38.1.1.35.11.43.35.51.09,1.68-.13,2.05.23.68.66-.13,2.39.83,3.35.08.08.23.06.25.1.05.05,0,.21.1.34.09.11.51.25.54.29.04.06-.01.2.04.28.11.17.98,1.06,1.17,1.24.15.14.51.28.6.38.11.12.12.4.29.58.19.21.69.54.96.81.85.86,1.66,1.6,2.55,2.41.11.09.06.25.21.34.19.1,1.98.18,2.14.08.33-.21-.01-1.77-.17-2.09-.09-.17-.71-.56-.88-.73-.47-.46-.89-1.07-1.37-1.54-1.46-1.45-3.72-3.22-4.88-4.87-.28-.41-.4-.72,0-1.1.37-.35,1.14-.08,1.62-.07.66,0,1.49-.01,2.11-.07.11,0,.63-.06.65-.08.04-.02.06-.17.13-.22.66-.59,1.67-1.54,2.22-2.23Z"/>
  <path class="cls-7" d="M89.96,11.58c.11.07.52.27.57.31.25.19.57.6.59.93.01.24-.25.69.18.73,0,.05,0,.1,0,.16-.3-.05-.08.21-.09.43,0,.1-.07.21-.07.28-.18.05-.18-.1-.2-.23-.04-.39-.1-1.42-.24-1.73s-.58-.38-.75-.87c-.09-.06-.19-.02-.35-.16-.13-.12-.45-.5-.44-.7.2.17.58.28.71.51.1.17.04.27.07.36Z"/>
  <path class="cls-9" d="M18.09,36.55c3.37.17,7.12-.31,10.45-.03.65.06,1.07.39,1.14,1.07.1.89.08,2.8,0,3.7-.05.6-.37,1.03-.99,1.14l-10.67-.04c-.37-.16-.71-.54-.78-.95-.12-.79-.09-3.25,0-4.09.05-.52.34-.76.85-.8ZM29.1,41.7c.43-.33.12-.97.1-1.43-.03-.8,0-1.47-.06-2.29,0-.11.08-.25.07-.39-.04-.37-.83-.62-1.15-.66-1.69-.21-3.03.02-4.73.04-1.54.02-3.11-.19-4.63.03-.17.02-.39-.04-.53,0-.03,0-.33.44-.48.49.03,1.14-.44,2.53-.19,3.62.04.19.27.41.22.68.35,0,.67.24.98.32,1.09.29,2.24.26,3.38.16.68-.06,1.53-.31,2.21-.31.64,0,1.66.14,2.28.08.16-.02.27-.14.38-.15.2,0,.6.21.82.2.24-.01.59-.29.63-.3.21-.03.41.14.71-.1Z"/>
  <path class="cls-4" d="M75.71,17.63s-.22-.04-.23.04c.18.59.28,1.19.3,1.81s-.16,1.31-.15,1.97c0,.32.16.74.15,1.02,0,.18-.17.38-.15.54,0,.05.14.04.16.1.11.43.02,1.2-.08,1.63-.03.13-.15.23-.15.32,0,.07.16.05.2.12.1.14-.04.4-.05.59-.03.99.07,2.03,0,2.99-.03.35-.23.91-.23,1.2,0,.24.08.45.08.85,0,.49.03,1.13,0,1.57-.01.19-.09.83-.19.91-.22.17-1.72-.12-2.12,0-.17-.04-.1-.53-.14-.66-.04-.12-.21-.06-.23-.24-.04-.31.08-.59.08-.86,0-.76-.12-1.7-.08-2.45.02-.37.21-.62.17-1.11-.12-1.23-.18-2.48-.14-3.77,0-.3.15-.85.14-1.1-.21-3.04-.06-6.12-.09-9.21-.01-.99.02-1.88.02-2.83,0-.72-.27-1.3.55-1.66.33-.15,1.7-.21,1.97-.08.18.09.13.34.2.51.03.07.15.12.18.22.2.65-.24,1.47-.21,2.03.07,1.47.18,3.13.15,4.64,0,.12-.06.87-.09.9Z"/>
  <path class="cls-1" d="M20.52,30.68c-.07.07-.22.07-.29.14-.59.66-.93,1.25-1.61,1.81-.56.47-1.43.86-2.16.53-.14-.06-.06-.19-.11-.24-.68-.67-1.46-1.4-2.19-2.11s-1.48-1.29-2.13-1.96c-.34-.35-.36-.66-.92-.89-.44-.18-.54,0-.96.06.06.43-.12.25-.21.33-1.01.85-2.02,2.12-2.98,3.05-.3.29-.87.66-1.11.93-.44.52.02.34-.74.67-1.11.49-1.31.52-2.22-.31-.43-.39-1.16-1.1-1.56-1.58-.7-.82-.61-1.14-.64-2.13-.07-2.52-.37-5.23-.23-7.79.02-.37.18-.76.17-1.1-.04-.97-.24-1.98-.16-2.99.08-1.15,0-1.95,0-3.07-.02-1.43.13-2.84.31-4.26.55-.5.79-.43,1.47-.37.27.03.26-.17.49.31.51,1.07.22,1.38.18,2.42-.08,1.91.06,3.83.08,5.74.02,2.14-.12,4.51.07,6.62.01.17.16.3.15.38-.01.09-.19.19-.2.34-.05.39.2,1.09.21,1.5,0,.77-.28,1.7-.23,2.59.04.74.24,1.1,1.07.99.15-.02.1-.14.21-.19.98-.45,1.31-.91,2.03-1.65.94-.97,1.98-1.88,2.86-2.87.07-.08.23-.05.28-.12.02-.02.18-.47.18-.49,0-.05-.16-.04-.16-.08,0-.05.2-.67.22-.89.01-.14-.07-.26-.06-.36,0-.06.17-.01.17-.16,0-.18-.14-.34-.17-.55-.04-.37-.04-1.01-.05-1.41-.02-1.79.15-3.16-.11-4.97-.06-.42.16-.65.16-.79,0-.1-.14-.2-.16-.32-.07-.46.03-1.06.15-1.49.09-.31-.03-.55.46-.72.06-.02.72-.18.77-.18.38-.02,1.14.27,1.22.68.07.38-.05.92.09,1.33.06,2.78-.39,5.5-.24,8.27.02.43.14,1.38.27,1.77.1.3.96,1.02,1.21,1.31.83.92,1.64,1.87,2.53,2.74.52.51.37.29.89.6.14.08.16.23.23.28.12.09.47.17.63.32.19-.07.46-.12.56-.3.07-.13.36-1.2.36-1.37,0-.38-.16-1-.16-1.26,0-.14.15-.27.16-.47,0-.21-.16-.41-.17-.63-.02-.72.11-1.58.08-2.36-.07-1.89,0-3.88,0-5.82,0-.64-.04-1.28-.09-1.89-.04-.5.19-1.32.16-1.82-.02-.28-.06-.41-.06-.78-.02-.88-.14-1.79-.09-2.68.03-.54.21-1.56.85-1.68.08-.01.64,0,.73.02,1.04.2.94,1.25.94,2.05.02,1.94-.28,4.41-.08,6.3.02.24.16.42.16.55,0,.16-.16.3-.17.54-.08,1.95.09,4.13.09,6.14,0,1.48-.18,2.97-.25,4.41-.02.37.12,1.03-.18,1.35Z"/>
  <path class="cls-4" d="M44.07,31.33c-.24-.04-.15.12-.16.27-.04,1.08.37,1.71-.98,1.78-.27.01-.93.02-1.18,0-.11,0-.71-.3-.73-.33-.05-.07-.12-1.54-.1-1.68.03-.19.16-.29.16-.39,0-.05-.16-.03-.16-.08,0-.12.13-.52.13-.72.01-.81.05-1.72.04-2.51,0-.32-.26-1.35-.56-1.5-.13-.06-1.05-.09-1.3-.1-2.09-.04-4.27.14-6.3-.1-.26-.03-.97-.1-1.17-.17-.03-.01-.34-.56-.35-.59-.07-.25.02-1.07.14-1.3.17-.32,1.95-.35,2.32-.37,1.24-.07,2.46-.1,3.7-.08.62,0,1.26.11,1.88.08,1.01-.05,1.59-.23,1.62-1.38,0-.35-.13-.87-.13-1.2-.02-1.09.08-2.2.05-3.29-.02-.9-.23-1.03-.82-1.66-1.25-1.35-2.67-2.54-3.95-3.88-.23-.24-.52-.8-.83-.9-.26-.08-1.11-.15-1.33,0-.16.11-.25.54-.34.64-.06.06-.19.05-.23.1-1.27,1.33-2.72,2.58-3.99,3.9-.46.48-.49.32-.75,1.06-.35,1-.15,1.4-.13,2.4.02.9-.27,2.68-.14,3.46.03.16.15.23.16.47,0,.29-.18.65-.17.94,0,.23.16.44.17.71.02.53-.25,1.3-.24,1.65,0,.23.2.4.24.63.09.7-.14,1.79-.15,2.53,0,.56.02,1.48.07,2.03.02.17.15.3.17.56,0,.21-.09.71-.24.85-.21.21-1.49.21-1.79.07-.44-.2-.36-.53-.43-.9-.11-.58.04-.66.01-1.05,0-.12-.12-.18-.14-.25-.02-.09.13-.19.15-.31.03-.18-.11-.4-.09-.62.02-.18.15-.27.16-.4.04-.43-.23-1.64-.24-2.12,0-.39.25-1,.21-1.41-.02-.18-.17-.31-.19-.42-.03-.2.07-.92.06-1.26,0-.52.01-.95-.02-1.48-.02-.42-.11-1.02-.08-1.43,0-.15.16-.11.17-.16.03-.25-.14-1.38-.15-1.73,0-.22-.02-.65,0-.85.02-.26.21-.5.22-.65,0-.05-.05-.86-.06-.92-.06-.4-.19-.41,0-.96.5-1.49,2.33-2.77,3.42-3.9.74-.77,1.52-1.52,2.29-2.28.2-.2.41-.67.73-.76.12-.03.77-.08.94-.09.82-.02,2.11-.07,2.91-.01.97.07.97.28,1.56.85.04.04.16,0,.19.04.04.04.31.72.43.83.05.05.27.06.41.18.64.51,1.25,1.27,1.85,1.85.46.44.98.87,1.44,1.31.28.26,1.2,1.06,1.36,1.28.14.19-.02.62.26.61,0,.08,0,.16,0,.24-.23-.07-.25.3,0,.24,0,.05,0,.1,0,.16-.23-.05-.25.2,0,.16,0,.1,0,.21,0,.31-.23-.1-.26.47,0,.39,0,.24,0,.47,0,.71-.28-.03-.11.09-.1.22,0,.3-.03.42-.05.69-.01.15-.07.32.16.27v.31c-.23-.09-.25.39,0,.31v.24c-.24-.04-.15.12-.16.27s0,.32,0,.48-.08.32.16.27v.16c-.23-.05-.25.2,0,.16v.39c-.24-.04-.15.12-.16.27-.03.88-.03,1.88,0,2.76,0,.15-.08.32.16.27,0,.13,0,.26,0,.39-.04,0-.15-.01-.16,0-.02.03-.08.76.16.63,0,.26,0,.53,0,.79-.23-.05-.25.2,0,.16v1.1c-.24-.04-.15.12-.16.27-.01.36-.01.75,0,1.11,0,.15-.08.32.16.27v.39c-.23-.11-.26.56,0,.47v.24Z"/>
  <path class="cls-9" d="M44.07,22.2c0,1.1,0,2.2,0,3.31-.24.04-.15-.12-.16-.27-.03-.88-.03-1.88,0-2.76,0-.15-.08-.32.16-.27Z"/>
  <path class="cls-9" d="M44.07,28.58v1.65c-.24.04-.15-.12-.16-.27-.01-.36-.01-.75,0-1.11,0-.15-.08-.32.16-.27Z"/>
  <path class="cls-9" d="M44.07,18.42c0,.38,0,.79,0,1.18-.23.05-.17-.12-.16-.27.02-.26.06-.39.05-.69,0-.13-.18-.25.1-.22Z"/>
  <path class="cls-9" d="M44.07,20.47c0,.34,0,.68,0,1.02-.24.04-.15-.12-.16-.27s0-.32,0-.48-.08-.32.16-.27Z"/>
  <path class="cls-9" d="M44.07,25.9c0,.21,0,.42,0,.63-.24.13-.18-.6-.16-.63,0-.01.11,0,.16,0Z"/>
  <path class="cls-9" d="M44.07,30.62v.47c-.26.09-.23-.58,0-.47Z"/>
  <path class="cls-9" d="M44.07,17.32c0,.13,0,.26,0,.39-.26.08-.23-.49,0-.39Z"/>
  <path class="cls-9" d="M44.07,19.92c0,.1,0,.21,0,.31-.25.07-.23-.4,0-.31Z"/>
  <path class="cls-9" d="M44.07,16.46c0,.08,0,.16,0,.24-.25.06-.23-.31,0-.24Z"/>
  <path class="cls-9" d="M44.07,27.32v.16c-.25.04-.23-.21,0-.16Z"/>
  <path class="cls-9" d="M44.07,16.85c0,.05,0,.1,0,.16-.25.04-.23-.21,0-.16Z"/>
  <path class="cls-9" d="M44.07,21.65c0,.05,0,.1,0,.16-.25.04-.23-.21,0-.16Z"/>
  <path class="cls-4" d="M49.66,9.29c.36.02.72-.13,1.06-.16.84-.06,2.01-.07,2.21.92.06.27.04,1.32,0,1.62-.01.1-.14.2-.14.41,0,.24.14.31.15.41.01.07-.14.24-.15.45-.07,1.77.08,3.71.08,5.51,0,2.57-.24,5.39.06,7.96.06.48-.2.74-.21,1.09,0,.33.16.84.16,1.18,0,.82-.15,1.65-.09,2.52.02.34.33,1.85.12,2.01-.05.04-.82.37-.87.37-.1,0-.21-.13-.38-.15-.69-.05-1.41.12-2.01-.35V9.29Z"/>
  <path class="cls-8" d="M72.35,2.42s-.02-.13-.06-.13c-.9-.05-2.33.05-3.3.08-.45.01-1.01.12-1.48.15-.22-.03-.48-.36-.55-.56-.03-.11-.22-.97-.21-1.02.03-.1.37-.52.5-.53l1.8.16c.99.03,3.67-.2,4.37.36.07.05.19.13.16.23-.61.25-.35.36-.41.77s-.44.69-.83.51Z"/>
  <path class="cls-8" d="M73.35,5.44c-.87.31-1.8.13-2.72.15-.83.02-1.78.12-2.6.09-.24-.01-.97-.04-.99-.28,0-.07.5-1.23.57-1.32.28-.41.6-.29,1.05-.29.67,0,1.38.1,2.04.02.62.23,1.81-.16,2.28.3.33.32.22.93.35,1.34Z"/>
  <path class="cls-8" d="M64.77,1.19c.06-.05.15-.15.16-.16.08-.06.57-.26.67-.24.39.06.04.3.04.51-.01.45.02,3.36.11,3.61.07.18.37.29.14.57-.11.13-.75.19-.94.14-.38-.11-.63-.81-.64-1.18,0-.15.07-.3.07-.46,0-.41-.07-2.26.07-2.45.05-.07.19-.11.27-.2.04-.05.03-.14.05-.15Z"/>
  <path class="cls-8" d="M76.26,2.29c-.25-.04-.14.13-.15.28-.08.71.14,1.98-.05,2.55-.18.54-1.07.48-1.53.4-.12-.17.55-.84.61-1.08.11-.41-.09-.78-.06-1.16.02-.28.23-.49.23-.63.02-.42-.53-1.49-1.02-1.58-.02-.1.05-.14.14-.18.38-.15.98-.25,1.38-.16.27.06.22.3.45.3-.02.44,0,.84,0,1.26Z"/>
  <path class="cls-8" d="M72.33,3.47c-.1.04-.11.07-.27.08-1.28.11-2.73-.1-4.03,0-.1.01-.13-.01-.19-.08h4.49Z"/>
  <path class="cls-9" d="M65.95,4.41c-.13-.24-.13-.77,0-1.02,0,.34,0,.68,0,1.02Z"/>
  <path class="cls-9" d="M66.03,4.81c-.05,0-.11,0-.16,0-.02-.06.08-.07.08-.08l.08.08Z"/>
  <path class="cls-2" d="M76.03,5.99s.17-.18.24-.24l-.24.24Z"/>
  <path class="cls-3" d="M90.35,20.31c-.23-.02-.2.24-.35.39-.12.12-.34.19-.47.31-.48.47-.91,1.16-1.43,1.56-.36.28-.6.06-.65.1-.04.03-.05.26-.22.29-.12.02-.43-.14-.62-.14-.67-.02-1.5.09-2.2,0-.12-.02-.34-.16-.36-.15s-.05.28-.21.31-.27-.32-.46-.31c-.09,0-.22.14-.39.16-.49.07-1.52-.1-2.05-.09-.21,0-.48.29-.73.14-.06-.03-.03-.22-.21-.22-.16,0-.22.29-.54.24-.11-.02-.19-.12-.26-.14-.2-.04-.83-.04-.95-.19-.03-.04-.17-.79-.17-.89,0-.12.08-.77.11-.9.12-.48.32-.67.79-.71,1.66-.13,3.91-.13,5.59-.08,1.12.03,2.6.5,3.5-.35.71-.67.26-2.14.23-2.99-.03-.6.11-1.44.08-1.97,0-.16-.18-.2-.22-.32-.09-.3.09-.71-.2-1.02-.7-.44-1.51-1.4-2.39-1.44-.25-.01-.4.15-.53.14-.11-.01-.21-.14-.4-.14-.39,0-1.06.26-1.5.24-.2,0-.34-.16-.47-.16-.19,0-.31.22-.47.23-.21.01-.38-.2-.49-.22-.08-.01-.24.15-.46.15-.28,0-.52-.2-.8-.22-.44-.02-1.78.23-2.02-.28-.02-.05-.2-.61-.21-.65-.02-.23.18-.43.21-.58.02-.13-.07-.24-.03-.41.23-.99,1.22-.67,1.98-.71,1.07-.05,1.76-.1,2.84-.01s1.84.1,2.9,0c1.67-.15,1.92.5,3.03,1.42-.02.2.31.58.44.7.16.14.26.11.35.16.17.49.61.56.75.87s.2,1.34.24,1.73c.01.13.01.28.2.23,0,.08,0,.16,0,.24-.1.03-.09.16-.08.24.02.21.07.38.08.63-.23-.05-.25.2,0,.16,0,.1,0,.21,0,.31-.23-.07-.25.3,0,.24,0,.16,0,.31,0,.47-.23-.05-.14.12-.18.25-.26.89-.02,1.84-.25,2.74-.05.2-.27.43-.36.63Z"/>
  <path class="cls-7" d="M91.14,16.69c0,.52.11,2.34-.01,2.71-.04.11-.19.11-.21.14-.05.08.07.24.03.38-.13.48-.89,1.11-.6.39.08-.2.3-.43.36-.63.24-.9-.01-1.85.25-2.74.04-.13-.06-.3.18-.25Z"/>
  <path class="cls-1" d="M67.18,20.36c-.55.69-1.55,1.64-2.22,2.23-.06.06-.09.2-.13.22-.03.02-.54.07-.65.08-.63.05-1.45.07-2.11.07-.49,0-1.25-.28-1.62.07-.4.37-.29.69,0,1.1,1.16,1.66,3.42,3.42,4.88,4.87.48.47.91,1.08,1.37,1.54.17.17.79.56.88.73.16.32.51,1.88.17,2.09-.16.1-1.95.02-2.14-.08-.16-.09-.11-.24-.21-.34-.89-.81-1.7-1.55-2.55-2.41-.27-.27-.77-.6-.96-.81-.16-.18-.18-.46-.29-.58-.09-.11-.45-.25-.6-.38-.19-.18-1.05-1.07-1.17-1.24-.05-.07,0-.21-.04-.28-.02-.04-.45-.18-.54-.29-.1-.13-.05-.28-.1-.34-.03-.03-.18-.02-.25-.1-.96-.96-.15-2.68-.83-3.35-.37-.36-1.55-.15-2.05-.23-.08-.25-.33-.26-.43-.35-.14-.14-.24-1.15-.21-1.38,0-.03.12-.33.16-.54.14-.69,2.06-.58,2.62-.56.93.03,1.61-.04,2.46-.03.25,0,.51.15.79.16.8.03,2.06.05,2.81-.19.51-.16,1.21-.88,1.23-1.43.02-.41-.28-.73-.3-.95-.02-.35.2-1.26.16-1.56,0-.05-.16-.05-.17-.09-.02-.16.16-.26.16-.46,0-.36-.2-1.62-.33-1.96-.22-.62-.8-.99-1.29-1.39-1.65-.25-3.3.04-4.95-.16-.86-.09-1.93.21-2.72-.11-.55-.23-.36-.3-.49-.69-.04-.12-.18-.16-.22-.33-.06-.28.06-1.15.26-1.35.05-.05.63-.26.73-.26.6-.03,1.3.08,1.89.09,1.46.02,2.98-.14,4.41-.09.49.02,1.59.06,2.03.18.65.18,1.19.98,1.63,1.44.79.82,1.48,1.18,1.58,2.44.13,1.7.06,3.9-.05,5.6,0,.12.07.25.05.37-.02.15-.53.87-.66,1.04Z"/>
  <path class="cls-7" d="M91.14,15.98c0,.08,0,.16,0,.24-.25.06-.23-.31,0-.24Z"/>
  <path class="cls-7" d="M91.14,14.65c0,.08.24.27-.08.24,0-.08-.02-.21.08-.24Z"/>
  <path class="cls-7" d="M91.14,15.51c0,.05,0,.11,0,.16-.25.04-.23-.21,0-.16Z"/>
  <path class="cls-3" d="M29.1,41.7c-.31.24-.5.07-.71.1-.04,0-.38.29-.63.3-.22.01-.62-.2-.82-.2-.11,0-.21.13-.38.15-.62.07-1.64-.07-2.28-.08-.68,0-1.53.25-2.21.31-1.14.1-2.29.13-3.38-.16-.31-.08-.63-.32-.98-.32.05-.27-.18-.49-.22-.68-.26-1.09.22-2.48.19-3.62.14-.06.44-.48.48-.49.15-.03.36.03.53,0,1.52-.22,3.09-.01,4.63-.03,1.7-.02,3.04-.26,4.73-.04.32.04,1.11.29,1.15.66.02.14-.07.27-.07.39.06.81.03,1.49.06,2.29.02.46.33,1.1-.1,1.43ZM20.07,37.86h-.87v3.07s.77.08.87.08v-3.15ZM26.68,37.98v3.03h.87c.18-1.05.03-2.1,0-3.15-.19.02-.8-.08-.87.12ZM25.66,39.2h-4.56v.63h4.56v-.63Z"/>
</svg>